<svg xmlns="http://www.w3.org/2000/svg" viewBox="0 0 1440 320"><path fill="#02D1FF" fill-opacity="1" d="M0,128L20,133.3C40,139,80,149,120,154.7C160,160,200,160,240,133.3C280,107,320,53,360,37.3C400,21,440,43,480,74.7C520,107,560,149,600,165.3C640,181,680,171,720,144C760,117,800,75,840,74.7C880,75,920,117,960,149.3C1000,181,1040,203,1080,197.3C1120,192,1160,160,1200,133.3C1240,107,1280,85,1320,85.3C1360,85,1400,107,1420,117.3L1440,128L1440,0L1420,0C1400,0,1360,0,1320,0C1280,0,1240,0,1200,0C1160,0,1120,0,1080,0C1040,0,1000,0,960,0C920,0,880,0,840,0C800,0,760,0,720,0C680,0,640,0,600,0C560,0,520,0,480,0C440,0,400,0,360,0C320,0,280,0,240,0C200,0,160,0,120,0C80,0,40,0,20,0L0,0Z"></path></svg>