<svg fill="none" height="64" viewBox="0 0 190 64" width="190" xmlns="http://www.w3.org/2000/svg"><path d="m100.48 31.6c1.627.3467 2.933 1.16 3.92 2.44.987 1.2533 1.48 2.6933 1.48 4.32 0 2.3467-.827 4.2133-2.48 5.6-1.627 1.36-3.9067 2.04-6.84 2.04h-13.08v-28.08h12.64c2.8533 0 5.08.6533 6.68 1.96 1.627 1.3067 2.44 3.08 2.44 5.32 0 1.6533-.44 3.0267-1.32 4.12-.853 1.0933-2 1.8533-3.44 2.28zm-10.16-2.32h4.48c1.12 0 1.9733-.24 2.56-.72.6133-.5067.92-1.24.92-2.2s-.3067-1.6933-.92-2.2c-.5867-.5067-1.44-.76-2.56-.76h-4.48zm5.04 11.2c1.1467 0 2.0267-.2533 2.64-.76.64-.5333.96-1.2933.96-2.28s-.3333-1.76-1-2.32c-.64-.56-1.5333-.84-2.68-.84h-4.96v6.2zm24.927-24.08v29.6h-6.84v-29.6zm11.997 4.96c-1.2 0-2.187-.3467-2.96-1.04-.747-.72-1.12-1.6-1.12-2.64 0-1.0667.373-1.9467 1.12-2.64.773-.72 1.76-1.08 2.96-1.08 1.173 0 2.133.36 2.88 1.08.773.6933 1.16 1.5733 1.16 2.64 0 1.04-.387 1.92-1.16 2.64-.747.6933-1.707 1.04-2.88 1.04zm3.4 2.32v22.32h-6.84v-22.32zm17.637 22.64c-1.947 0-3.68-.3333-5.2-1s-2.72-1.5733-3.6-2.72c-.88-1.1733-1.373-2.48-1.48-3.92h6.76c.08.7733.44 1.4 1.08 1.88s1.427.72 2.36.72c.853 0 1.507-.16 1.96-.48.48-.3467.72-.7867.72-1.32 0-.64-.333-1.1067-1-1.4-.667-.32-1.747-.6667-3.24-1.04-1.6-.3733-2.933-.76-4-1.16-1.067-.4267-1.987-1.08-2.76-1.96-.773-.9067-1.16-2.12-1.16-3.64 0-1.28.347-2.44 1.04-3.48.72-1.0667 1.76-1.9067 3.12-2.52 1.387-.6133 3.027-.92 4.92-.92 2.8 0 5 .6933 6.6 2.08 1.627 1.3867 2.56 3.2267 2.8 5.52h-6.32c-.107-.7733-.453-1.3867-1.04-1.84-.56-.4533-1.307-.68-2.24-.68-.8 0-1.413.16-1.84.48-.427.2933-.64.7067-.64 1.24 0 .64.333 1.12 1 1.44.693.32 1.76.64 3.2.96 1.653.4267 3 .8533 4.04 1.28 1.04.4 1.947 1.0667 2.72 2 .8.9067 1.213 2.1333 1.24 3.68 0 1.3067-.373 2.48-1.12 3.52-.72 1.0133-1.773 1.8133-3.16 2.4-1.36.5867-2.947.88-4.76.88zm25.905 0c-1.947 0-3.68-.3333-5.2-1s-2.72-1.5733-3.6-2.72c-.88-1.1733-1.374-2.48-1.48-3.92h6.76c.08.7733.44 1.4 1.08 1.88s1.426.72 2.36.72c.853 0 1.506-.16 1.96-.48.48-.3467.72-.7867.72-1.32 0-.64-.334-1.1067-1-1.4-.667-.32-1.747-.6667-3.24-1.04-1.6-.3733-2.934-.76-4-1.16-1.067-.4267-1.987-1.08-2.76-1.96-.774-.9067-1.16-2.12-1.16-3.64 0-1.28.346-2.44 1.04-3.48.72-1.0667 1.76-1.9067 3.12-2.52 1.386-.6133 3.026-.92 4.92-.92 2.8 0 5 .6933 6.6 2.08 1.626 1.3867 2.56 3.2267 2.8 5.52h-6.32c-.107-.7733-.454-1.3867-1.04-1.84-.56-.4533-1.307-.68-2.24-.68-.8 0-1.414.16-1.84.48-.427.2933-.64.7067-.64 1.24 0 .64.333 1.12 1 1.44.693.32 1.76.64 3.2.96 1.653.4267 3 .8533 4.04 1.28 1.04.4 1.946 1.0667 2.72 2 .8.9067 1.213 2.1333 1.24 3.68 0 1.3067-.374 2.48-1.12 3.52-.72 1.0133-1.774 1.8133-3.16 2.4-1.36.5867-2.947.88-4.76.88z" fill="#313450"/><g fill="#4e6ef1"><path d="m19.1 14.1c-1.1-1.1-2.7-1.1-3.7 0l-14.2 14.7c-1.6 1.9-1.6 4.5 0 6.1l14.1 14.7c.5.5 1.3.8 1.9.8s1.3-.3 1.9-.8c1.1-1.1 1.1-2.7 0-3.7l-13.6-13.9 13.6-14.1c1.1-1.1 1.1-2.7 0-3.8z"/><path d="m62.6 28.8-14.2-14.7c-1.1-1.1-2.7-1.1-3.7 0s-1.1 2.7 0 3.7l13.6 14.2-13.6 14.1c-1.1 1.1-1.1 2.7 0 3.7.5.5 1.1.8 1.9.8s1.3-.3 1.9-.8l14.1-14.7c1.8-1.8 1.8-4.4 0-6.3z"/><path d="m38.3 14.4c-1.3-.5-2.9.3-3.5 1.6l-10.9 30.4c-.5 1.3.3 2.9 1.6 3.5.3 0 .5.3.8.3 1.1 0 2.1-.8 2.4-1.9l11.2-30.7c.5-1.3-.3-2.9-1.6-3.2z"/></g></svg>