<svg width="23" height="22" viewBox="0 0 23 22" fill="none" xmlns="http://www.w3.org/2000/svg">
<g clip-path="url(#clip0_1_11114)">
<path d="M11.5658 16.4998C10.1071 16.4998 8.70815 15.9204 7.6767 14.8889C6.64525 13.8575 6.06579 12.4585 6.06579 10.9998C6.06579 9.54115 6.64525 8.1422 7.6767 7.11075C8.70815 6.0793 10.1071 5.49984 11.5658 5.49984C13.0245 5.49984 14.4234 6.0793 15.4549 7.11075C16.4863 8.1422 17.0658 9.54115 17.0658 10.9998C17.0658 12.4585 16.4863 13.8575 15.4549 14.8889C14.4234 15.9204 13.0245 16.4998 11.5658 16.4998ZM11.5658 14.6665C12.5382 14.6665 13.4709 14.2802 14.1585 13.5926C14.8461 12.9049 15.2325 11.9723 15.2325 10.9998C15.2325 10.0274 14.8461 9.09475 14.1585 8.40711C13.4709 7.71948 12.5382 7.33317 11.5658 7.33317C10.5933 7.33317 9.6607 7.71948 8.97306 8.40711C8.28543 9.09475 7.89912 10.0274 7.89912 10.9998C7.89912 11.9723 8.28543 12.9049 8.97306 13.5926C9.6607 14.2802 10.5933 14.6665 11.5658 14.6665ZM10.6491 0.916504H12.4825V3.6665H10.6491V0.916504ZM10.6491 18.3332H12.4825V21.0832H10.6491V18.3332ZM3.78787 4.51809L5.08404 3.22192L7.02829 5.16617L5.73212 6.46234L3.78787 4.519V4.51809ZM16.1033 16.8335L17.3995 15.5373L19.3437 17.4816L18.0475 18.7778L16.1033 16.8335ZM18.0475 3.221L19.3437 4.51809L17.3995 6.46234L16.1033 5.16617L18.0475 3.22192V3.221ZM5.73212 15.5373L7.02829 16.8335L5.08404 18.7778L3.78787 17.4816L5.73212 15.5373ZM21.6491 10.0832V11.9165H18.8991V10.0832H21.6491ZM4.23245 10.0832V11.9165H1.48245V10.0832H4.23245Z" fill="#181C31"/>
</g>
<defs>
<clipPath id="clip0_1_11114">
<rect width="22" height="22" fill="white" transform="translate(0.565796)"/>
</clipPath>
</defs>
</svg>